<?xml version="1.0" encoding="UTF-8" standalone="no"?>
<!-- Creator: CorelDRAW -->

<svg
   xml:space="preserve"
   width="6.82666in"
   height="6.82666in"
   style="shape-rendering:geometricPrecision; text-rendering:geometricPrecision; image-rendering:optimizeQuality; fill-rule:evenodd; clip-rule:evenodd"
   viewBox="0 0 6.82666 6.82666"
   version="1.1"
   id="svg2"
   sodipodi:docname="tool_windowlevel.svg"
   inkscape:version="1.3.2 (091e20e, 2023-11-25, custom)"
   xmlns:inkscape="http://www.inkscape.org/namespaces/inkscape"
   xmlns:sodipodi="http://sodipodi.sourceforge.net/DTD/sodipodi-0.dtd"
   xmlns="http://www.w3.org/2000/svg"
   xmlns:svg="http://www.w3.org/2000/svg"><sodipodi:namedview
   id="namedview2"
   pagecolor="#2b2b2b"
   bordercolor="#000000"
   borderopacity="0.25"
   inkscape:showpageshadow="2"
   inkscape:pageopacity="0.0"
   inkscape:pagecheckerboard="0"
   inkscape:deskcolor="#d1d1d1"
   inkscape:document-units="in"
   inkscape:zoom="1.7898577"
   inkscape:cx="328.23838"
   inkscape:cy="328.23838"
   inkscape:window-width="2560"
   inkscape:window-height="1369"
   inkscape:window-x="2552"
   inkscape:window-y="-8"
   inkscape:window-maximized="1"
   inkscape:current-layer="Layer_x0020_1" />
 <defs
   id="defs1">
  <style
   type="text/css"
   id="style1">
   <![CDATA[
    .fil6 {fill:none}
    .fil5 {fill:#717171}
    .fil2 {fill:#7E7E7E}
    .fil4 {fill:#9D9D9D}
    .fil1 {fill:#AFAFAF}
    .fil3 {fill:#D2D2D2}
    .fil0 {fill:#E9E9EA}
   ]]>
  </style>







   </defs>
 <g
   id="Layer_x0020_1"
   inkscape:label="Layer 1">
  <metadata
   id="CorelCorpID_0Corel-Layer" />
  <path
   id="_315715624"
   class="fil0"
   d="m 3.4102243,0.7609341 c -0.7639912,0 -1.4895589,0.2777834 -2.0296949,0.7768801 -0.54012641,0.4991109 -0.84074582,1.1695603 -0.84074582,1.8755128 0,0.705956 0.30061941,1.3764073 0.84074582,1.8755128 0.5401418,0.4990967 1.2657075,0.7768801 2.0296949,0.7768801 0.7639913,0 1.489559,-0.2777834 2.029695,-0.7768801 C 5.9800457,4.7897289 6.2806651,4.1192795 6.2806651,3.413327 6.2806651,2.707371 5.9800457,2.0369197 5.4399193,1.5378142 4.8997775,1.0387175 4.1742117,0.7609341 3.4102243,0.7609341 Z"
   style="fill:#ffffff;fill-opacity:1;stroke-width:1.85381" /><path
   id="_315714904"
   class="fil2"
   d="M 6.293566,3.4133323 C 6.293566,2.7071069 5.9905196,2.0358806 5.4463449,1.5365896 4.9293696,1.0622416 4.2432713,0.78757248 3.5160029,0.76130529 V 6.0653594 C 4.243263,6.039091 4.9293716,5.7644231 5.4463449,5.2900751 5.9905196,4.7907841 6.293566,4.1195578 6.293566,3.4133323 Z"
   style="fill:#b3b3b3;fill-opacity:1;stroke-width:2.00968" />
 </g>
 <rect
   class="fil6"
   width="6.82666"
   height="6.82666"
   id="rect2" />
</svg>
