<?xml version="1.0" encoding="UTF-8" standalone="no"?>
<!-- Creator: CorelDRAW -->

<svg
   xml:space="preserve"
   width="6.82666in"
   height="6.82666in"
   style="shape-rendering:geometricPrecision; text-rendering:geometricPrecision; image-rendering:optimizeQuality; fill-rule:evenodd; clip-rule:evenodd"
   viewBox="0 0 6.82666 6.82666"
   version="1.1"
   id="svg1"
   sodipodi:docname="tool_ruler.svg"
   inkscape:version="1.3.2 (091e20e, 2023-11-25, custom)"
   xmlns:inkscape="http://www.inkscape.org/namespaces/inkscape"
   xmlns:sodipodi="http://sodipodi.sourceforge.net/DTD/sodipodi-0.dtd"
   xmlns="http://www.w3.org/2000/svg"
   xmlns:svg="http://www.w3.org/2000/svg"><sodipodi:namedview
   id="namedview1"
   pagecolor="#444444"
   bordercolor="#000000"
   borderopacity="0.25"
   inkscape:showpageshadow="2"
   inkscape:pageopacity="0.0"
   inkscape:pagecheckerboard="0"
   inkscape:deskcolor="#d1d1d1"
   inkscape:document-units="in"
   inkscape:zoom="1.7898577"
   inkscape:cx="328.23838"
   inkscape:cy="328.23838"
   inkscape:window-width="2560"
   inkscape:window-height="1369"
   inkscape:window-x="2552"
   inkscape:window-y="-8"
   inkscape:window-maximized="1"
   inkscape:current-layer="Layer_x0020_1" />
 <defs
   id="defs1">
  <style
   type="text/css"
   id="style1">
   <![CDATA[
    .fil3 {fill:none}
    .fil2 {fill:#545454;fill-rule:nonzero}
    .fil1 {fill:#9D9D9D;fill-rule:nonzero}
    .fil0 {fill:#ADADAE;fill-rule:nonzero}
   ]]>
  </style>




  </defs>
 <g
   id="Layer_x0020_1"
   inkscape:label="Layer 1">
  <metadata
   id="CorelCorpID_0Corel-Layer" />
  <path
   id="_374340056"
   class="fil0"
   d="m 5.04511,0.885181 -4.16053,4.16053 -7.87e-6,-7.9e-6 c -0.0416535,0.041653 -0.0416535,0.109197 0,0.15085 l 6.0629e-4,5.906e-4 0.74493698,0.744937 -7.8e-6,7.9e-6 c 0.041654,0.041653 0.109197,0.041653 0.15085,0 l 5.905e-4,-6.063e-4 4.16053,-4.16053 7.9e-6,7.8e-6 c 0.041654,-0.041654 0.041654,-0.109197 0,-0.15085 l -6.063e-4,-5.905e-4 -0.744937,-0.74493702 7.9e-6,-7.88e-6 c -0.041653,-0.0416535 -0.109197,-0.0416535 -0.15085,0 z"
   style="fill:#ffffff;fill-opacity:1" /><path
   id="_374340368"
   class="fil1"
   d="m 5.04511,0.885181 -4.16053,4.16053 -7.87e-6,-7.9e-6 c -0.0416535,0.041653 -0.0416535,0.109197 0,0.15085 l 6.0629e-4,5.906e-4 0.0591614,0.059161 4.31195998,-4.31196002 -0.05976,-0.0597598 7.9e-6,-7.88e-6 c -0.041653,-0.0416535 -0.109197,-0.0416535 -0.15085,0 l -5.906e-4,6.063e-4 z"
   style="fill:#000000;fill-opacity:1" /><path
   id="_374340008"
   class="fil2"
   d="M 5.19268,1.72304 C 5.179589,1.709953 5.18586,1.682453 5.206692,1.661631 5.227515,1.640808 5.255011,1.634536 5.268098,1.647623 L 5.671767,2.051292 5.59635,2.126709 Z M 1.91301,5.18687 C 1.899923,5.173779 1.90619,5.146279 1.927022,5.125457 1.947841,5.104638 1.975341,5.098363 1.988431,5.111449 L 2.300014,5.423036 2.224597,5.498457 Z M 2.23529,4.86459 C 2.222203,4.851503 2.22847,4.823999 2.249302,4.803177 2.270125,4.782354 2.297621,4.776083 2.310707,4.789173 L 2.622294,5.10076 2.546877,5.176177 Z M 2.557566,4.542314 C 2.544479,4.529223 2.550756,4.501723 2.571574,4.480905 2.592397,4.460082 2.619897,4.453807 2.632987,4.466893 L 2.944574,4.77848 2.869153,4.853897 Z m 0.32228,-0.32228 C 2.866759,4.206943 2.873036,4.179443 2.893858,4.158621 2.914677,4.137802 2.942177,4.131527 2.955267,4.144613 L 3.26685,4.4562 3.191433,4.531621 Z m 0.32228,-0.32228 C 3.189039,3.884663 3.195306,3.857163 3.216138,3.836341 3.236957,3.815522 3.264457,3.809246 3.277547,3.822333 L 3.58913,4.133924 3.513713,4.209341 Z M 3.524406,3.575478 C 3.511315,3.562387 3.517586,3.534887 3.53841,3.514069 3.559233,3.493242 3.586733,3.486971 3.599823,3.500057 L 3.91141,3.811644 3.835993,3.887061 Z M 3.846682,3.253198 C 3.833595,3.240107 3.839872,3.212607 3.86069,3.191789 3.881513,3.170966 3.909013,3.164691 3.922103,3.177777 L 4.23369,3.489364 4.158269,3.564781 Z m 0.32228,-0.32228 C 4.155875,2.917827 4.162152,2.890327 4.182974,2.869505 4.203793,2.848686 4.231293,2.84241 4.244383,2.855497 L 4.555966,3.167084 4.480549,3.242505 Z m 0.32228,-0.32228 C 4.478151,2.595551 4.484422,2.568055 4.505246,2.547232 4.526069,2.526405 4.553573,2.520134 4.566659,2.53322 L 4.878246,2.844807 4.802829,2.920224 Z M 4.813518,2.286362 C 4.800431,2.273271 4.806708,2.245771 4.827526,2.224953 4.848349,2.204126 4.875849,2.197855 4.888939,2.210941 L 5.200526,2.522528 5.125105,2.597945 Z m -3.16589,2.98173 C 1.634541,5.255005 1.640808,5.227505 1.661636,5.206683 1.682459,5.18586 1.709959,5.179589 1.723045,5.192675 L 2.12671,5.59634 2.051293,5.671757 Z M 1.969904,4.945812 C 1.956817,4.932721 1.963084,4.905225 1.983912,4.884403 2.004739,4.86358 2.032235,4.857309 2.045321,4.870395 L 2.44899,5.274064 2.373573,5.349481 Z M 2.292184,4.623536 C 2.279097,4.610449 2.285364,4.582949 2.306192,4.562127 2.327015,4.541304 2.354515,4.535029 2.367601,4.548119 L 2.77127,4.951784 2.695849,5.027201 Z m 0.32228,-0.32228 C 2.601377,4.288169 2.607644,4.260669 2.628472,4.239847 2.649295,4.219024 2.676795,4.212753 2.689881,4.225839 L 3.09355,4.629504 3.018129,4.704921 Z M 2.93674,3.978976 C 2.923653,3.965885 2.92992,3.938389 2.950748,3.917567 2.971575,3.896744 2.999071,3.890473 3.012157,3.903559 L 3.415826,4.307228 3.340409,4.382645 Z M 3.25902,3.656696 C 3.245933,3.643605 3.2522,3.616109 3.273028,3.595287 3.293855,3.574464 3.321351,3.568192 3.334437,3.581279 L 3.738106,3.984948 3.662685,4.060365 Z M 3.5813,3.33442 C 3.568213,3.321333 3.57448,3.293833 3.595308,3.273011 3.616131,3.252188 3.643631,3.245913 3.656717,3.259003 L 4.060386,3.662668 3.984965,3.738085 Z M 3.903576,3.01214 C 3.890485,2.999053 3.896756,2.971553 3.917588,2.950731 3.938411,2.929908 3.965907,2.923636 3.978993,2.936723 L 4.382662,3.340392 4.307245,3.415809 Z M 4.225856,2.68986 C 4.212769,2.676769 4.219036,2.649273 4.239864,2.628451 4.260691,2.607628 4.288187,2.601356 4.301273,2.614443 L 4.704942,3.018112 4.629525,3.093529 Z M 4.548136,2.367584 C 4.535049,2.354497 4.541316,2.326997 4.562144,2.306175 4.582967,2.285352 4.610467,2.279077 4.623553,2.292167 L 5.027222,2.695832 4.951801,2.771249 Z M 4.870412,2.045304 C 4.857325,2.032217 4.863602,2.004717 4.884424,1.983895 4.905243,1.963076 4.932743,1.9568 4.945829,1.969887 L 5.349498,2.373556 5.274081,2.448973 Z M 5.135806,1.964076 C 5.122719,1.950985 5.128996,1.923485 5.149814,1.902667 5.170637,1.881844 5.198137,1.875569 5.211227,1.888655 L 5.522814,2.200242 5.447393,2.275659 Z"
   style="fill:#000000;fill-opacity:1" />
 </g>
 <rect
   class="fil3"
   width="6.82666"
   height="6.82666"
   id="rect1" />
</svg>
