<?xml version="1.0" encoding="UTF-8" standalone="no"?>
<!-- Creator: CorelDRAW -->

<svg
   xml:space="preserve"
   width="6.82666in"
   height="6.82666in"
   style="shape-rendering:geometricPrecision; text-rendering:geometricPrecision; image-rendering:optimizeQuality; fill-rule:evenodd; clip-rule:evenodd"
   viewBox="0 0 6.82666 6.82666"
   version="1.1"
   id="svg2"
   sodipodi:docname="tool_windowlevel.svg"
   inkscape:version="1.3.2 (091e20e, 2023-11-25, custom)"
   xmlns:inkscape="http://www.inkscape.org/namespaces/inkscape"
   xmlns:sodipodi="http://sodipodi.sourceforge.net/DTD/sodipodi-0.dtd"
   xmlns="http://www.w3.org/2000/svg"
   xmlns:svg="http://www.w3.org/2000/svg"><sodipodi:namedview
   id="namedview2"
   pagecolor="#2b2b2b"
   bordercolor="#000000"
   borderopacity="0.25"
   inkscape:showpageshadow="2"
   inkscape:pageopacity="0.0"
   inkscape:pagecheckerboard="0"
   inkscape:deskcolor="#d1d1d1"
   inkscape:document-units="in"
   inkscape:zoom="1.7898577"
   inkscape:cx="327.67969"
   inkscape:cy="327.67969"
   inkscape:window-width="2560"
   inkscape:window-height="1369"
   inkscape:window-x="2552"
   inkscape:window-y="-8"
   inkscape:window-maximized="1"
   inkscape:current-layer="Layer_x0020_1" />
 <defs
   id="defs1">
  <style
   type="text/css"
   id="style1">
   <![CDATA[
    .fil6 {fill:none}
    .fil5 {fill:#717171}
    .fil2 {fill:#7E7E7E}
    .fil4 {fill:#9D9D9D}
    .fil1 {fill:#AFAFAF}
    .fil3 {fill:#D2D2D2}
    .fil0 {fill:#E9E9EA}
   ]]>
  </style>
 
   
   
  
    
    
    
   </defs>
 <g
   id="Layer_x0020_1"
   inkscape:label="Layer 1">
  <metadata
   id="CorelCorpID_0Corel-Layer" />
  <path
   id="_315715624"
   class="fil0"
   d="m 3.41333,1.9249 c -0.396157,0 -0.77239,0.155882 -1.05247,0.435957 -0.280075,0.280083 -0.435957,0.656315 -0.435957,1.05247 0,0.396157 0.155882,0.77239 0.435957,1.05247 0.280083,0.280075 0.656315,0.435957 1.05247,0.435957 0.396157,0 0.77239,-0.155882 1.05247,-0.435957 C 4.745875,4.185714 4.901757,3.809482 4.901757,3.413327 4.901757,3.01717 4.745875,2.640937 4.4658,2.360857 4.185717,2.080782 3.809485,1.9249 3.41333,1.9249 Z"
   style="fill:#ffffff;fill-opacity:1" /><path
   id="_315714904"
   class="fil2"
   d="M 4.79205,3.41333 C 4.79205,3.046468 4.647609,2.697787 4.388239,2.438421 4.141833,2.192012 3.814818,2.04933 3.46818,2.035685 v 2.75529 C 3.814814,4.7773293 4.141834,4.634648 4.388239,4.388239 4.647609,4.128873 4.79205,3.780192 4.79205,3.41333 Z"
   style="fill:#000000;fill-opacity:1" />
 </g>
 <rect
   class="fil6"
   width="6.82666"
   height="6.82666"
   id="rect2" />
</svg>
