<?xml version="1.0" encoding="UTF-8" standalone="no"?>
<svg
   id="Layer_1"
   data-name="Layer 1"
   viewBox="0 0 16 16"
   version="1.1"
   sodipodi:docname="tool_select.svg"
   inkscape:version="1.3.2 (091e20e, 2023-11-25, custom)"
   xmlns:inkscape="http://www.inkscape.org/namespaces/inkscape"
   xmlns:sodipodi="http://sodipodi.sourceforge.net/DTD/sodipodi-0.dtd"
   xmlns="http://www.w3.org/2000/svg"
   xmlns:svg="http://www.w3.org/2000/svg"
   xmlns:rdf="http://www.w3.org/1999/02/22-rdf-syntax-ns#"
   xmlns:cc="http://creativecommons.org/ns#"
   xmlns:dc="http://purl.org/dc/elements/1.1/">
  <defs
     id="defs2" />
  <sodipodi:namedview
     id="namedview2"
     pagecolor="#424242"
     bordercolor="#000000"
     borderopacity="0.25"
     inkscape:showpageshadow="2"
     inkscape:pageopacity="0.0"
     inkscape:pagecheckerboard="0"
     inkscape:deskcolor="#d1d1d1"
     inkscape:zoom="73.3125"
     inkscape:cx="8"
     inkscape:cy="8"
     inkscape:window-width="2560"
     inkscape:window-height="1369"
     inkscape:window-x="2552"
     inkscape:window-y="-8"
     inkscape:window-maximized="1"
     inkscape:current-layer="Layer_1" />
  <title
     id="title1">Trade_Icons</title>
  <path
     d="M7.6,9a4.5,4.5,0,1,1,4.5-4.5A4.51,4.51,0,0,1,7.6,9Zm0-8A3.49,3.49,0,1,0,11.09,4.5,3.49,3.49,0,0,0,7.6,1Z"
     id="path1"
     style="fill:#b2b2b2;fill-opacity:1" />
  <path
     d="M10.64,9H9V4A1,1,0,0,0,7,4v8.63L5.44,10.8a1.89,1.89,0,0,0-2.71-.4L7,16h7V12A3.34,3.34,0,0,0,10.64,9Z"
     id="path2"
     style="fill:#ffffff;fill-opacity:1" />
  <metadata
     id="metadata2">
    <rdf:RDF>
      <cc:Work
         rdf:about="">
        <dc:title>Trade_Icons</dc:title>
      </cc:Work>
    </rdf:RDF>
  </metadata>
</svg>
